<svg xmlns="http://www.w3.org/2000/svg" width="1140" height="508" viewBox="0 0 1140 508"><rect width="1140" height="508" fill="white"/><g transform="translate(30,30)"><rect x="0" y="0" width="120" height="180" rx="14" ry="14" fill="white" stroke="#cccccc" stroke-width="1"/><rect x="7" y="7" width="106" height="166" rx="10" ry="10" fill="#EC1C2E"/><clipPath id="clip_30_30"><rect x="7" y="7" width="106" height="166" rx="10" ry="10"/></clipPath><g clip-path="url(#clip_30_30)"><path d="M -24.7,7.7 L -12.4,3.3 L 2.2,5.6 L -7.6,16.7 L -19.8,21.2 L -16.1,12.2 Z" fill="#B5121F" opacity="0.55"/><path d="M 29.9,7.7 L 42.1,3.3 L 56.8,5.6 L 47.0,16.7 L 34.8,21.2 L 38.4,12.2 Z" fill="#B5121F" opacity="0.55"/><path d="M 84.4,7.7 L 96.6,3.3 L 111.3,5.6 L 101.5,16.7 L 89.3,21.2 L 93.0,12.2 Z" fill="#B5121F" opacity="0.55"/><path d="M -9.7,40.5 L 2.6,36.0 L 17.2,38.3 L 7.4,49.4 L -4.8,53.9 L -1.1,45.0 Z" fill="#B5121F" opacity="0.55"/><path d="M 44.9,40.5 L 57.1,36.0 L 71.8,38.3 L 62.0,49.4 L 49.8,53.9 L 53.4,45.0 Z" fill="#B5121F" opacity="0.55"/><path d="M 99.4,40.5 L 111.6,36.0 L 126.3,38.3 L 116.5,49.4 L 104.3,53.9 L 108.0,45.0 Z" fill="#B5121F" opacity="0.55"/><path d="M -24.7,73.2 L -12.4,68.7 L 2.2,71.0 L -7.6,82.2 L -19.8,86.6 L -16.1,77.7 Z" fill="#B5121F" opacity="0.55"/><path d="M 29.9,73.2 L 42.1,68.7 L 56.8,71.0 L 47.0,82.2 L 34.8,86.6 L 38.4,77.7 Z" fill="#B5121F" opacity="0.55"/><path d="M 84.4,73.2 L 96.6,68.7 L 111.3,71.0 L 101.5,82.2 L 89.3,86.6 L 93.0,77.7 Z" fill="#B5121F" opacity="0.55"/><path d="M -9.7,105.9 L 2.6,101.5 L 17.2,103.7 L 7.4,114.9 L -4.8,119.3 L -1.1,110.4 Z" fill="#B5121F" opacity="0.55"/><path d="M 44.9,105.9 L 57.1,101.5 L 71.8,103.7 L 62.0,114.9 L 49.8,119.3 L 53.4,110.4 Z" fill="#B5121F" opacity="0.55"/><path d="M 99.4,105.9 L 111.6,101.5 L 126.3,103.7 L 116.5,114.9 L 104.3,119.3 L 108.0,110.4 Z" fill="#B5121F" opacity="0.55"/><path d="M -24.7,138.6 L -12.4,134.2 L 2.2,136.5 L -7.6,147.6 L -19.8,152.1 L -16.1,143.1 Z" fill="#B5121F" opacity="0.55"/><path d="M 29.9,138.6 L 42.1,134.2 L 56.8,136.5 L 47.0,147.6 L 34.8,152.1 L 38.4,143.1 Z" fill="#B5121F" opacity="0.55"/><path d="M 84.4,138.6 L 96.6,134.2 L 111.3,136.5 L 101.5,147.6 L 89.3,152.1 L 93.0,143.1 Z" fill="#B5121F" opacity="0.55"/><path d="M -9.7,171.4 L 2.6,166.9 L 17.2,169.2 L 7.4,180.4 L -4.8,184.8 L -1.1,175.9 Z" fill="#B5121F" opacity="0.55"/><path d="M 44.9,171.4 L 57.1,166.9 L 71.8,169.2 L 62.0,180.4 L 49.8,184.8 L 53.4,175.9 Z" fill="#B5121F" opacity="0.55"/><path d="M 99.4,171.4 L 111.6,166.9 L 126.3,169.2 L 116.5,180.4 L 104.3,184.8 L 108.0,175.9 Z" fill="#B5121F" opacity="0.55"/></g><text x="60.0" y="90.0" font-family="Arial, Helvetica, sans-serif" font-size="68.0" font-weight="900" fill="white" stroke="#1a1a1a" stroke-width="5" stroke-linejoin="round" paint-order="stroke fill" text-anchor="middle" dominant-baseline="central">+2</text><text x="15" y="32.400000000000006" font-family="Arial, Helvetica, sans-serif" font-size="23.4" font-weight="900" fill="white" stroke="#1a1a1a" stroke-width="3" stroke-linejoin="round" paint-order="stroke fill">+2</text><g transform="translate(113,173) rotate(180)"><text x="8" y="25.4" font-family="Arial, Helvetica, sans-serif" font-size="23.4" font-weight="900" fill="white" stroke="#1a1a1a" stroke-width="3" stroke-linejoin="round" paint-order="stroke fill">+2</text></g></g><text x="90.0" y="232" text-anchor="middle" font-family="Arial, Helvetica, sans-serif" font-size="14" fill="#333">+2 Kirmizi</text><g transform="translate(190,30)"><rect x="0" y="0" width="120" height="180" rx="14" ry="14" fill="white" stroke="#cccccc" stroke-width="1"/><rect x="7" y="7" width="106" height="166" rx="10" ry="10" fill="#0072BC"/><clipPath id="clip_190_30"><rect x="7" y="7" width="106" height="166" rx="10" ry="10"/></clipPath><g clip-path="url(#clip_190_30)"><path d="M -10,5.0 q 16.8,-10 33.6,0 q 16.8,10 33.6,0 q 16.8,-10 33.6,0 q 16.8,10 33.6,0" fill="none" stroke="#00548B" stroke-width="4" stroke-linecap="round" opacity="0.55" transform="rotate(-20 60.0 5.0)"/><path d="M -10,25.0 q 16.8,-10 33.6,0 q 16.8,10 33.6,0 q 16.8,-10 33.6,0 q 16.8,10 33.6,0" fill="none" stroke="#00548B" stroke-width="4" stroke-linecap="round" opacity="0.55" transform="rotate(-20 60.0 25.0)"/><path d="M -10,45.0 q 16.8,-10 33.6,0 q 16.8,10 33.6,0 q 16.8,-10 33.6,0 q 16.8,10 33.6,0" fill="none" stroke="#00548B" stroke-width="4" stroke-linecap="round" opacity="0.55" transform="rotate(-20 60.0 45.0)"/><path d="M -10,65.0 q 16.8,-10 33.6,0 q 16.8,10 33.6,0 q 16.8,-10 33.6,0 q 16.8,10 33.6,0" fill="none" stroke="#00548B" stroke-width="4" stroke-linecap="round" opacity="0.55" transform="rotate(-20 60.0 65.0)"/><path d="M -10,85.0 q 16.8,-10 33.6,0 q 16.8,10 33.6,0 q 16.8,-10 33.6,0 q 16.8,10 33.6,0" fill="none" stroke="#00548B" stroke-width="4" stroke-linecap="round" opacity="0.55" transform="rotate(-20 60.0 85.0)"/><path d="M -10,105.0 q 16.8,-10 33.6,0 q 16.8,10 33.6,0 q 16.8,-10 33.6,0 q 16.8,10 33.6,0" fill="none" stroke="#00548B" stroke-width="4" stroke-linecap="round" opacity="0.55" transform="rotate(-20 60.0 105.0)"/><path d="M -10,125.0 q 16.8,-10 33.6,0 q 16.8,10 33.6,0 q 16.8,-10 33.6,0 q 16.8,10 33.6,0" fill="none" stroke="#00548B" stroke-width="4" stroke-linecap="round" opacity="0.55" transform="rotate(-20 60.0 125.0)"/><path d="M -10,145.0 q 16.8,-10 33.6,0 q 16.8,10 33.6,0 q 16.8,-10 33.6,0 q 16.8,10 33.6,0" fill="none" stroke="#00548B" stroke-width="4" stroke-linecap="round" opacity="0.55" transform="rotate(-20 60.0 145.0)"/><path d="M -10,165.0 q 16.8,-10 33.6,0 q 16.8,10 33.6,0 q 16.8,-10 33.6,0 q 16.8,10 33.6,0" fill="none" stroke="#00548B" stroke-width="4" stroke-linecap="round" opacity="0.55" transform="rotate(-20 60.0 165.0)"/></g><text x="60.0" y="90.0" font-family="Arial, Helvetica, sans-serif" font-size="68.0" font-weight="900" fill="white" stroke="#1a1a1a" stroke-width="5" stroke-linejoin="round" paint-order="stroke fill" text-anchor="middle" dominant-baseline="central">+2</text><text x="15" y="32.400000000000006" font-family="Arial, Helvetica, sans-serif" font-size="23.4" font-weight="900" fill="white" stroke="#1a1a1a" stroke-width="3" stroke-linejoin="round" paint-order="stroke fill">+2</text><g transform="translate(113,173) rotate(180)"><text x="8" y="25.4" font-family="Arial, Helvetica, sans-serif" font-size="23.4" font-weight="900" fill="white" stroke="#1a1a1a" stroke-width="3" stroke-linejoin="round" paint-order="stroke fill">+2</text></g></g><text x="250.0" y="232" text-anchor="middle" font-family="Arial, Helvetica, sans-serif" font-size="14" fill="#333">+2 Mavi</text><g transform="translate(350,30)"><rect x="0" y="0" width="120" height="180" rx="14" ry="14" fill="white" stroke="#cccccc" stroke-width="1"/><rect x="7" y="7" width="106" height="166" rx="10" ry="10" fill="#4C9F3D"/><clipPath id="clip_350_30"><rect x="7" y="7" width="106" height="166" rx="10" ry="10"/></clipPath><g clip-path="url(#clip_350_30)"><path d="M -17.3,3.4 Q 2.7,0.9 7.3,20.6 Q -12.7,23.1 -17.3,3.4 Z" fill="#357029" opacity="0.55"/><path d="M 34.9,3.4 Q 54.9,0.9 59.5,20.6 Q 39.4,23.1 34.9,3.4 Z" fill="#357029" opacity="0.55"/><path d="M 87.1,3.4 Q 107.1,0.9 111.6,20.6 Q 91.6,23.1 87.1,3.4 Z" fill="#357029" opacity="0.55"/><path d="M -3.3,35.0 Q 16.7,32.5 21.3,52.2 Q 1.3,54.6 -3.3,35.0 Z" fill="#357029" opacity="0.55"/><path d="M 48.9,35.0 Q 68.9,32.5 73.5,52.2 Q 53.4,54.6 48.9,35.0 Z" fill="#357029" opacity="0.55"/><path d="M 101.1,35.0 Q 121.1,32.5 125.6,52.2 Q 105.6,54.6 101.1,35.0 Z" fill="#357029" opacity="0.55"/><path d="M -17.3,66.6 Q 2.7,64.1 7.3,83.8 Q -12.7,86.2 -17.3,66.6 Z" fill="#357029" opacity="0.55"/><path d="M 34.9,66.6 Q 54.9,64.1 59.5,83.8 Q 39.4,86.2 34.9,66.6 Z" fill="#357029" opacity="0.55"/><path d="M 87.1,66.6 Q 107.1,64.1 111.6,83.8 Q 91.6,86.2 87.1,66.6 Z" fill="#357029" opacity="0.55"/><path d="M -3.3,98.1 Q 16.7,95.7 21.3,115.3 Q 1.3,117.8 -3.3,98.1 Z" fill="#357029" opacity="0.55"/><path d="M 48.9,98.1 Q 68.9,95.7 73.5,115.3 Q 53.4,117.8 48.9,98.1 Z" fill="#357029" opacity="0.55"/><path d="M 101.1,98.1 Q 121.1,95.7 125.6,115.3 Q 105.6,117.8 101.1,98.1 Z" fill="#357029" opacity="0.55"/><path d="M -17.3,129.7 Q 2.7,127.3 7.3,146.9 Q -12.7,149.4 -17.3,129.7 Z" fill="#357029" opacity="0.55"/><path d="M 34.9,129.7 Q 54.9,127.3 59.5,146.9 Q 39.4,149.4 34.9,129.7 Z" fill="#357029" opacity="0.55"/><path d="M 87.1,129.7 Q 107.1,127.3 111.6,146.9 Q 91.6,149.4 87.1,129.7 Z" fill="#357029" opacity="0.55"/><path d="M -3.3,161.3 Q 16.7,158.8 21.3,178.5 Q 1.3,181.0 -3.3,161.3 Z" fill="#357029" opacity="0.55"/><path d="M 48.9,161.3 Q 68.9,158.8 73.5,178.5 Q 53.4,181.0 48.9,161.3 Z" fill="#357029" opacity="0.55"/><path d="M 101.1,161.3 Q 121.1,158.8 125.6,178.5 Q 105.6,181.0 101.1,161.3 Z" fill="#357029" opacity="0.55"/></g><text x="60.0" y="90.0" font-family="Arial, Helvetica, sans-serif" font-size="68.0" font-weight="900" fill="white" stroke="#1a1a1a" stroke-width="5" stroke-linejoin="round" paint-order="stroke fill" text-anchor="middle" dominant-baseline="central">+2</text><text x="15" y="32.400000000000006" font-family="Arial, Helvetica, sans-serif" font-size="23.4" font-weight="900" fill="white" stroke="#1a1a1a" stroke-width="3" stroke-linejoin="round" paint-order="stroke fill">+2</text><g transform="translate(113,173) rotate(180)"><text x="8" y="25.4" font-family="Arial, Helvetica, sans-serif" font-size="23.4" font-weight="900" fill="white" stroke="#1a1a1a" stroke-width="3" stroke-linejoin="round" paint-order="stroke fill">+2</text></g></g><text x="410.0" y="232" text-anchor="middle" font-family="Arial, Helvetica, sans-serif" font-size="14" fill="#333">+2 Yesil</text><g transform="translate(510,30)"><rect x="0" y="0" width="120" height="180" rx="14" ry="14" fill="white" stroke="#cccccc" stroke-width="1"/><rect x="7" y="7" width="106" height="166" rx="10" ry="10" fill="#FFCC00"/><clipPath id="clip_510_30"><rect x="7" y="7" width="106" height="166" rx="10" ry="10"/></clipPath><g clip-path="url(#clip_510_30)"><path d="M -5.0,0.0 L -2.1,8.0 L 6.4,8.3 L -0.2,13.5 L 2.1,21.7 L -5.0,17.0 L -12.1,21.7 L -9.8,13.5 L -16.4,8.3 L -7.9,8.0 Z" fill="#E0A400" opacity="0.55" transform="rotate(-20 -5.0 12.0)"/><path d="M 47.2,0.0 L 50.1,8.0 L 58.6,8.3 L 51.9,13.5 L 54.2,21.7 L 47.2,17.0 L 40.1,21.7 L 42.4,13.5 L 35.8,8.3 L 44.2,8.0 Z" fill="#E0A400" opacity="0.55" transform="rotate(-20 47.2 12.0)"/><path d="M 99.3,0.0 L 102.3,8.0 L 110.8,8.3 L 104.1,13.5 L 106.4,21.7 L 99.3,17.0 L 92.3,21.7 L 94.6,13.5 L 87.9,8.3 L 96.4,8.0 Z" fill="#E0A400" opacity="0.55" transform="rotate(-20 99.3 12.0)"/><path d="M 9.0,31.6 L 11.9,39.5 L 20.4,39.9 L 13.8,45.1 L 16.1,53.3 L 9.0,48.6 L 1.9,53.3 L 4.2,45.1 L -2.4,39.9 L 6.1,39.5 Z" fill="#E0A400" opacity="0.55" transform="rotate(-20 9.0 43.6)"/><path d="M 61.2,31.6 L 64.1,39.5 L 72.6,39.9 L 65.9,45.1 L 68.2,53.3 L 61.2,48.6 L 54.1,53.3 L 56.4,45.1 L 49.8,39.9 L 58.2,39.5 Z" fill="#E0A400" opacity="0.55" transform="rotate(-20 61.2 43.6)"/><path d="M 113.3,31.6 L 116.3,39.5 L 124.8,39.9 L 118.1,45.1 L 120.4,53.3 L 113.3,48.6 L 106.3,53.3 L 108.6,45.1 L 101.9,39.9 L 110.4,39.5 Z" fill="#E0A400" opacity="0.55" transform="rotate(-20 113.3 43.6)"/><path d="M -5.0,63.2 L -2.1,71.1 L 6.4,71.4 L -0.2,76.7 L 2.1,84.9 L -5.0,80.2 L -12.1,84.9 L -9.8,76.7 L -16.4,71.4 L -7.9,71.1 Z" fill="#E0A400" opacity="0.55" transform="rotate(-20 -5.0 75.2)"/><path d="M 47.2,63.2 L 50.1,71.1 L 58.6,71.4 L 51.9,76.7 L 54.2,84.9 L 47.2,80.2 L 40.1,84.9 L 42.4,76.7 L 35.8,71.4 L 44.2,71.1 Z" fill="#E0A400" opacity="0.55" transform="rotate(-20 47.2 75.2)"/><path d="M 99.3,63.2 L 102.3,71.1 L 110.8,71.4 L 104.1,76.7 L 106.4,84.9 L 99.3,80.2 L 92.3,84.9 L 94.6,76.7 L 87.9,71.4 L 96.4,71.1 Z" fill="#E0A400" opacity="0.55" transform="rotate(-20 99.3 75.2)"/><path d="M 9.0,94.7 L 11.9,102.7 L 20.4,103.0 L 13.8,108.3 L 16.1,116.4 L 9.0,111.7 L 1.9,116.4 L 4.2,108.3 L -2.4,103.0 L 6.1,102.7 Z" fill="#E0A400" opacity="0.55" transform="rotate(-20 9.0 106.7)"/><path d="M 61.2,94.7 L 64.1,102.7 L 72.6,103.0 L 65.9,108.3 L 68.2,116.4 L 61.2,111.7 L 54.1,116.4 L 56.4,108.3 L 49.8,103.0 L 58.2,102.7 Z" fill="#E0A400" opacity="0.55" transform="rotate(-20 61.2 106.7)"/><path d="M 113.3,94.7 L 116.3,102.7 L 124.8,103.0 L 118.1,108.3 L 120.4,116.4 L 113.3,111.7 L 106.3,116.4 L 108.6,108.3 L 101.9,103.0 L 110.4,102.7 Z" fill="#E0A400" opacity="0.55" transform="rotate(-20 113.3 106.7)"/><path d="M -5.0,126.3 L -2.1,134.3 L 6.4,134.6 L -0.2,139.9 L 2.1,148.0 L -5.0,143.3 L -12.1,148.0 L -9.8,139.9 L -16.4,134.6 L -7.9,134.3 Z" fill="#E0A400" opacity="0.55" transform="rotate(-20 -5.0 138.3)"/><path d="M 47.2,126.3 L 50.1,134.3 L 58.6,134.6 L 51.9,139.9 L 54.2,148.0 L 47.2,143.3 L 40.1,148.0 L 42.4,139.9 L 35.8,134.6 L 44.2,134.3 Z" fill="#E0A400" opacity="0.55" transform="rotate(-20 47.2 138.3)"/><path d="M 99.3,126.3 L 102.3,134.3 L 110.8,134.6 L 104.1,139.9 L 106.4,148.0 L 99.3,143.3 L 92.3,148.0 L 94.6,139.9 L 87.9,134.6 L 96.4,134.3 Z" fill="#E0A400" opacity="0.55" transform="rotate(-20 99.3 138.3)"/><path d="M 9.0,157.9 L 11.9,165.8 L 20.4,166.2 L 13.8,171.4 L 16.1,179.6 L 9.0,174.9 L 1.9,179.6 L 4.2,171.4 L -2.4,166.2 L 6.1,165.8 Z" fill="#E0A400" opacity="0.55" transform="rotate(-20 9.0 169.9)"/><path d="M 61.2,157.9 L 64.1,165.8 L 72.6,166.2 L 65.9,171.4 L 68.2,179.6 L 61.2,174.9 L 54.1,179.6 L 56.4,171.4 L 49.8,166.2 L 58.2,165.8 Z" fill="#E0A400" opacity="0.55" transform="rotate(-20 61.2 169.9)"/><path d="M 113.3,157.9 L 116.3,165.8 L 124.8,166.2 L 118.1,171.4 L 120.4,179.6 L 113.3,174.9 L 106.3,179.6 L 108.6,171.4 L 101.9,166.2 L 110.4,165.8 Z" fill="#E0A400" opacity="0.55" transform="rotate(-20 113.3 169.9)"/></g><text x="60.0" y="90.0" font-family="Arial, Helvetica, sans-serif" font-size="68.0" font-weight="900" fill="white" stroke="#1a1a1a" stroke-width="5" stroke-linejoin="round" paint-order="stroke fill" text-anchor="middle" dominant-baseline="central">+2</text><text x="15" y="32.400000000000006" font-family="Arial, Helvetica, sans-serif" font-size="23.4" font-weight="900" fill="white" stroke="#1a1a1a" stroke-width="3" stroke-linejoin="round" paint-order="stroke fill">+2</text><g transform="translate(113,173) rotate(180)"><text x="8" y="25.4" font-family="Arial, Helvetica, sans-serif" font-size="23.4" font-weight="900" fill="white" stroke="#1a1a1a" stroke-width="3" stroke-linejoin="round" paint-order="stroke fill">+2</text></g></g><text x="570.0" y="232" text-anchor="middle" font-family="Arial, Helvetica, sans-serif" font-size="14" fill="#333">+2 Sari</text><g transform="translate(670,30)"><rect x="0" y="0" width="120" height="180" rx="14" ry="14" fill="white" stroke="#cccccc" stroke-width="1"/><rect x="7" y="7" width="106" height="166" rx="10" ry="10" fill="#111111"/><path d="M 60.0,68.4 L 45.9,54.3 A 19.9,19.9 0 0 1 74.1,54.3 Z" fill="#FFCC00" stroke="white" stroke-width="2.5"/><path d="M 60.0,68.4 L 74.1,54.3 A 19.9,19.9 0 0 1 74.1,82.5 Z" fill="#EC1C2E" stroke="white" stroke-width="2.5"/><path d="M 60.0,68.4 L 74.1,82.5 A 19.9,19.9 0 0 1 45.9,82.5 Z" fill="#0072BC" stroke="white" stroke-width="2.5"/><path d="M 60.0,68.4 L 45.9,82.5 A 19.9,19.9 0 0 1 45.9,54.3 Z" fill="#4C9F3D" stroke="white" stroke-width="2.5"/><circle cx="60.0" cy="68.4" r="5.6" fill="white"/><text x="60.0" y="113.8" font-family="Arial, Helvetica, sans-serif" font-size="50.4" font-weight="900" fill="white" stroke="#1a1a1a" stroke-width="4.5" stroke-linejoin="round" paint-order="stroke fill" text-anchor="middle" dominant-baseline="central">+4</text><text x="15" y="32.400000000000006" font-family="Arial, Helvetica, sans-serif" font-size="23.4" font-weight="900" fill="white" stroke="#1a1a1a" stroke-width="3" stroke-linejoin="round" paint-order="stroke fill">+4</text><g transform="translate(113,173) rotate(180)"><text x="8" y="25.4" font-family="Arial, Helvetica, sans-serif" font-size="23.4" font-weight="900" fill="white" stroke="#1a1a1a" stroke-width="3" stroke-linejoin="round" paint-order="stroke fill">+4</text></g></g><text x="730.0" y="232" text-anchor="middle" font-family="Arial, Helvetica, sans-serif" font-size="14" fill="#333">+4</text><g transform="translate(830,30)"><rect x="0" y="0" width="120" height="180" rx="14" ry="14" fill="white" stroke="#cccccc" stroke-width="1"/><rect x="7" y="7" width="106" height="166" rx="10" ry="10" fill="#111111"/><path d="M 60.0,78.0 L 34.0,52.0 A 36.7,36.7 0 0 1 86.0,52.0 Z" fill="#FFCC00" stroke="white" stroke-width="2.5"/><path d="M 60.0,78.0 L 86.0,52.0 A 36.7,36.7 0 0 1 86.0,104.0 Z" fill="#EC1C2E" stroke="white" stroke-width="2.5"/><path d="M 60.0,78.0 L 86.0,104.0 A 36.7,36.7 0 0 1 34.0,104.0 Z" fill="#0072BC" stroke="white" stroke-width="2.5"/><path d="M 60.0,78.0 L 34.0,104.0 A 36.7,36.7 0 0 1 34.0,52.0 Z" fill="#4C9F3D" stroke="white" stroke-width="2.5"/><circle cx="60.0" cy="78.0" r="10.3" fill="white"/><text x="60.0" y="144.7" font-family="Arial, Helvetica, sans-serif" font-size="15" font-weight="800" fill="white" stroke="#1a1a1a" stroke-width="1.4" stroke-linejoin="round" paint-order="stroke fill" text-anchor="middle" textLength="82" lengthAdjust="spacingAndGlyphs">Renk Seç</text></g><text x="890.0" y="232" text-anchor="middle" font-family="Arial, Helvetica, sans-serif" font-size="14" fill="#333">Renk degistirme</text><g transform="translate(990,30)"><rect x="0" y="0" width="120" height="180" rx="14" ry="14" fill="white" stroke="#cccccc" stroke-width="1"/><rect x="7" y="7" width="106" height="166" rx="10" ry="10" fill="#EC1C2E"/><clipPath id="clip_990_30"><rect x="7" y="7" width="106" height="166" rx="10" ry="10"/></clipPath><g clip-path="url(#clip_990_30)"><path d="M -24.7,7.7 L -12.4,3.3 L 2.2,5.6 L -7.6,16.7 L -19.8,21.2 L -16.1,12.2 Z" fill="#B5121F" opacity="0.55"/><path d="M 29.9,7.7 L 42.1,3.3 L 56.8,5.6 L 47.0,16.7 L 34.8,21.2 L 38.4,12.2 Z" fill="#B5121F" opacity="0.55"/><path d="M 84.4,7.7 L 96.6,3.3 L 111.3,5.6 L 101.5,16.7 L 89.3,21.2 L 93.0,12.2 Z" fill="#B5121F" opacity="0.55"/><path d="M -9.7,40.5 L 2.6,36.0 L 17.2,38.3 L 7.4,49.4 L -4.8,53.9 L -1.1,45.0 Z" fill="#B5121F" opacity="0.55"/><path d="M 44.9,40.5 L 57.1,36.0 L 71.8,38.3 L 62.0,49.4 L 49.8,53.9 L 53.4,45.0 Z" fill="#B5121F" opacity="0.55"/><path d="M 99.4,40.5 L 111.6,36.0 L 126.3,38.3 L 116.5,49.4 L 104.3,53.9 L 108.0,45.0 Z" fill="#B5121F" opacity="0.55"/><path d="M -24.7,73.2 L -12.4,68.7 L 2.2,71.0 L -7.6,82.2 L -19.8,86.6 L -16.1,77.7 Z" fill="#B5121F" opacity="0.55"/><path d="M 29.9,73.2 L 42.1,68.7 L 56.8,71.0 L 47.0,82.2 L 34.8,86.6 L 38.4,77.7 Z" fill="#B5121F" opacity="0.55"/><path d="M 84.4,73.2 L 96.6,68.7 L 111.3,71.0 L 101.5,82.2 L 89.3,86.6 L 93.0,77.7 Z" fill="#B5121F" opacity="0.55"/><path d="M -9.7,105.9 L 2.6,101.5 L 17.2,103.7 L 7.4,114.9 L -4.8,119.3 L -1.1,110.4 Z" fill="#B5121F" opacity="0.55"/><path d="M 44.9,105.9 L 57.1,101.5 L 71.8,103.7 L 62.0,114.9 L 49.8,119.3 L 53.4,110.4 Z" fill="#B5121F" opacity="0.55"/><path d="M 99.4,105.9 L 111.6,101.5 L 126.3,103.7 L 116.5,114.9 L 104.3,119.3 L 108.0,110.4 Z" fill="#B5121F" opacity="0.55"/><path d="M -24.7,138.6 L -12.4,134.2 L 2.2,136.5 L -7.6,147.6 L -19.8,152.1 L -16.1,143.1 Z" fill="#B5121F" opacity="0.55"/><path d="M 29.9,138.6 L 42.1,134.2 L 56.8,136.5 L 47.0,147.6 L 34.8,152.1 L 38.4,143.1 Z" fill="#B5121F" opacity="0.55"/><path d="M 84.4,138.6 L 96.6,134.2 L 111.3,136.5 L 101.5,147.6 L 89.3,152.1 L 93.0,143.1 Z" fill="#B5121F" opacity="0.55"/><path d="M -9.7,171.4 L 2.6,166.9 L 17.2,169.2 L 7.4,180.4 L -4.8,184.8 L -1.1,175.9 Z" fill="#B5121F" opacity="0.55"/><path d="M 44.9,171.4 L 57.1,166.9 L 71.8,169.2 L 62.0,180.4 L 49.8,184.8 L 53.4,175.9 Z" fill="#B5121F" opacity="0.55"/><path d="M 99.4,171.4 L 111.6,166.9 L 126.3,169.2 L 116.5,180.4 L 104.3,184.8 L 108.0,175.9 Z" fill="#B5121F" opacity="0.55"/></g><circle cx="60.0" cy="90.0" r="31.1" fill="none" stroke="#1a1a1a" stroke-width="15"/><circle cx="60.0" cy="90.0" r="31.1" fill="none" stroke="white" stroke-width="9"/><line x1="35.7" y1="65.7" x2="84.3" y2="114.3" stroke="#1a1a1a" stroke-width="15" stroke-linecap="round"/><line x1="35.7" y1="65.7" x2="84.3" y2="114.3" stroke="white" stroke-width="9" stroke-linecap="round"/><text x="15" y="34.74000000000001" font-family="Arial, Helvetica, sans-serif" font-size="25.7" font-weight="900" fill="white" stroke="#1a1a1a" stroke-width="3" stroke-linejoin="round" paint-order="stroke fill">⊘</text><g transform="translate(113,173) rotate(180)"><text x="8" y="27.7" font-family="Arial, Helvetica, sans-serif" font-size="25.7" font-weight="900" fill="white" stroke="#1a1a1a" stroke-width="3" stroke-linejoin="round" paint-order="stroke fill">⊘</text></g></g><text x="1050.0" y="232" text-anchor="middle" font-family="Arial, Helvetica, sans-serif" font-size="14" fill="#333">Bloklama Kirmizi</text><g transform="translate(30,264)"><rect x="0" y="0" width="120" height="180" rx="14" ry="14" fill="white" stroke="#cccccc" stroke-width="1"/><rect x="7" y="7" width="106" height="166" rx="10" ry="10" fill="#0072BC"/><clipPath id="clip_30_264"><rect x="7" y="7" width="106" height="166" rx="10" ry="10"/></clipPath><g clip-path="url(#clip_30_264)"><path d="M -10,5.0 q 16.8,-10 33.6,0 q 16.8,10 33.6,0 q 16.8,-10 33.6,0 q 16.8,10 33.6,0" fill="none" stroke="#00548B" stroke-width="4" stroke-linecap="round" opacity="0.55" transform="rotate(-20 60.0 5.0)"/><path d="M -10,25.0 q 16.8,-10 33.6,0 q 16.8,10 33.6,0 q 16.8,-10 33.6,0 q 16.8,10 33.6,0" fill="none" stroke="#00548B" stroke-width="4" stroke-linecap="round" opacity="0.55" transform="rotate(-20 60.0 25.0)"/><path d="M -10,45.0 q 16.8,-10 33.6,0 q 16.8,10 33.6,0 q 16.8,-10 33.6,0 q 16.8,10 33.6,0" fill="none" stroke="#00548B" stroke-width="4" stroke-linecap="round" opacity="0.55" transform="rotate(-20 60.0 45.0)"/><path d="M -10,65.0 q 16.8,-10 33.6,0 q 16.8,10 33.6,0 q 16.8,-10 33.6,0 q 16.8,10 33.6,0" fill="none" stroke="#00548B" stroke-width="4" stroke-linecap="round" opacity="0.55" transform="rotate(-20 60.0 65.0)"/><path d="M -10,85.0 q 16.8,-10 33.6,0 q 16.8,10 33.6,0 q 16.8,-10 33.6,0 q 16.8,10 33.6,0" fill="none" stroke="#00548B" stroke-width="4" stroke-linecap="round" opacity="0.55" transform="rotate(-20 60.0 85.0)"/><path d="M -10,105.0 q 16.8,-10 33.6,0 q 16.8,10 33.6,0 q 16.8,-10 33.6,0 q 16.8,10 33.6,0" fill="none" stroke="#00548B" stroke-width="4" stroke-linecap="round" opacity="0.55" transform="rotate(-20 60.0 105.0)"/><path d="M -10,125.0 q 16.8,-10 33.6,0 q 16.8,10 33.6,0 q 16.8,-10 33.6,0 q 16.8,10 33.6,0" fill="none" stroke="#00548B" stroke-width="4" stroke-linecap="round" opacity="0.55" transform="rotate(-20 60.0 125.0)"/><path d="M -10,145.0 q 16.8,-10 33.6,0 q 16.8,10 33.6,0 q 16.8,-10 33.6,0 q 16.8,10 33.6,0" fill="none" stroke="#00548B" stroke-width="4" stroke-linecap="round" opacity="0.55" transform="rotate(-20 60.0 145.0)"/><path d="M -10,165.0 q 16.8,-10 33.6,0 q 16.8,10 33.6,0 q 16.8,-10 33.6,0 q 16.8,10 33.6,0" fill="none" stroke="#00548B" stroke-width="4" stroke-linecap="round" opacity="0.55" transform="rotate(-20 60.0 165.0)"/></g><circle cx="60.0" cy="90.0" r="31.1" fill="none" stroke="#1a1a1a" stroke-width="15"/><circle cx="60.0" cy="90.0" r="31.1" fill="none" stroke="white" stroke-width="9"/><line x1="35.7" y1="65.7" x2="84.3" y2="114.3" stroke="#1a1a1a" stroke-width="15" stroke-linecap="round"/><line x1="35.7" y1="65.7" x2="84.3" y2="114.3" stroke="white" stroke-width="9" stroke-linecap="round"/><text x="15" y="34.74000000000001" font-family="Arial, Helvetica, sans-serif" font-size="25.7" font-weight="900" fill="white" stroke="#1a1a1a" stroke-width="3" stroke-linejoin="round" paint-order="stroke fill">⊘</text><g transform="translate(113,173) rotate(180)"><text x="8" y="27.7" font-family="Arial, Helvetica, sans-serif" font-size="25.7" font-weight="900" fill="white" stroke="#1a1a1a" stroke-width="3" stroke-linejoin="round" paint-order="stroke fill">⊘</text></g></g><text x="90.0" y="466" text-anchor="middle" font-family="Arial, Helvetica, sans-serif" font-size="14" fill="#333">Bloklama Mavi</text><g transform="translate(190,264)"><rect x="0" y="0" width="120" height="180" rx="14" ry="14" fill="white" stroke="#cccccc" stroke-width="1"/><rect x="7" y="7" width="106" height="166" rx="10" ry="10" fill="#4C9F3D"/><clipPath id="clip_190_264"><rect x="7" y="7" width="106" height="166" rx="10" ry="10"/></clipPath><g clip-path="url(#clip_190_264)"><path d="M -17.3,3.4 Q 2.7,0.9 7.3,20.6 Q -12.7,23.1 -17.3,3.4 Z" fill="#357029" opacity="0.55"/><path d="M 34.9,3.4 Q 54.9,0.9 59.5,20.6 Q 39.4,23.1 34.9,3.4 Z" fill="#357029" opacity="0.55"/><path d="M 87.1,3.4 Q 107.1,0.9 111.6,20.6 Q 91.6,23.1 87.1,3.4 Z" fill="#357029" opacity="0.55"/><path d="M -3.3,35.0 Q 16.7,32.5 21.3,52.2 Q 1.3,54.6 -3.3,35.0 Z" fill="#357029" opacity="0.55"/><path d="M 48.9,35.0 Q 68.9,32.5 73.5,52.2 Q 53.4,54.6 48.9,35.0 Z" fill="#357029" opacity="0.55"/><path d="M 101.1,35.0 Q 121.1,32.5 125.6,52.2 Q 105.6,54.6 101.1,35.0 Z" fill="#357029" opacity="0.55"/><path d="M -17.3,66.6 Q 2.7,64.1 7.3,83.8 Q -12.7,86.2 -17.3,66.6 Z" fill="#357029" opacity="0.55"/><path d="M 34.9,66.6 Q 54.9,64.1 59.5,83.8 Q 39.4,86.2 34.9,66.6 Z" fill="#357029" opacity="0.55"/><path d="M 87.1,66.6 Q 107.1,64.1 111.6,83.8 Q 91.6,86.2 87.1,66.6 Z" fill="#357029" opacity="0.55"/><path d="M -3.3,98.1 Q 16.7,95.7 21.3,115.3 Q 1.3,117.8 -3.3,98.1 Z" fill="#357029" opacity="0.55"/><path d="M 48.9,98.1 Q 68.9,95.7 73.5,115.3 Q 53.4,117.8 48.9,98.1 Z" fill="#357029" opacity="0.55"/><path d="M 101.1,98.1 Q 121.1,95.7 125.6,115.3 Q 105.6,117.8 101.1,98.1 Z" fill="#357029" opacity="0.55"/><path d="M -17.3,129.7 Q 2.7,127.3 7.3,146.9 Q -12.7,149.4 -17.3,129.7 Z" fill="#357029" opacity="0.55"/><path d="M 34.9,129.7 Q 54.9,127.3 59.5,146.9 Q 39.4,149.4 34.9,129.7 Z" fill="#357029" opacity="0.55"/><path d="M 87.1,129.7 Q 107.1,127.3 111.6,146.9 Q 91.6,149.4 87.1,129.7 Z" fill="#357029" opacity="0.55"/><path d="M -3.3,161.3 Q 16.7,158.8 21.3,178.5 Q 1.3,181.0 -3.3,161.3 Z" fill="#357029" opacity="0.55"/><path d="M 48.9,161.3 Q 68.9,158.8 73.5,178.5 Q 53.4,181.0 48.9,161.3 Z" fill="#357029" opacity="0.55"/><path d="M 101.1,161.3 Q 121.1,158.8 125.6,178.5 Q 105.6,181.0 101.1,161.3 Z" fill="#357029" opacity="0.55"/></g><circle cx="60.0" cy="90.0" r="31.1" fill="none" stroke="#1a1a1a" stroke-width="15"/><circle cx="60.0" cy="90.0" r="31.1" fill="none" stroke="white" stroke-width="9"/><line x1="35.7" y1="65.7" x2="84.3" y2="114.3" stroke="#1a1a1a" stroke-width="15" stroke-linecap="round"/><line x1="35.7" y1="65.7" x2="84.3" y2="114.3" stroke="white" stroke-width="9" stroke-linecap="round"/><text x="15" y="34.74000000000001" font-family="Arial, Helvetica, sans-serif" font-size="25.7" font-weight="900" fill="white" stroke="#1a1a1a" stroke-width="3" stroke-linejoin="round" paint-order="stroke fill">⊘</text><g transform="translate(113,173) rotate(180)"><text x="8" y="27.7" font-family="Arial, Helvetica, sans-serif" font-size="25.7" font-weight="900" fill="white" stroke="#1a1a1a" stroke-width="3" stroke-linejoin="round" paint-order="stroke fill">⊘</text></g></g><text x="250.0" y="466" text-anchor="middle" font-family="Arial, Helvetica, sans-serif" font-size="14" fill="#333">Bloklama Yesil</text><g transform="translate(350,264)"><rect x="0" y="0" width="120" height="180" rx="14" ry="14" fill="white" stroke="#cccccc" stroke-width="1"/><rect x="7" y="7" width="106" height="166" rx="10" ry="10" fill="#FFCC00"/><clipPath id="clip_350_264"><rect x="7" y="7" width="106" height="166" rx="10" ry="10"/></clipPath><g clip-path="url(#clip_350_264)"><path d="M -5.0,0.0 L -2.1,8.0 L 6.4,8.3 L -0.2,13.5 L 2.1,21.7 L -5.0,17.0 L -12.1,21.7 L -9.8,13.5 L -16.4,8.3 L -7.9,8.0 Z" fill="#E0A400" opacity="0.55" transform="rotate(-20 -5.0 12.0)"/><path d="M 47.2,0.0 L 50.1,8.0 L 58.6,8.3 L 51.9,13.5 L 54.2,21.7 L 47.2,17.0 L 40.1,21.7 L 42.4,13.5 L 35.8,8.3 L 44.2,8.0 Z" fill="#E0A400" opacity="0.55" transform="rotate(-20 47.2 12.0)"/><path d="M 99.3,0.0 L 102.3,8.0 L 110.8,8.3 L 104.1,13.5 L 106.4,21.7 L 99.3,17.0 L 92.3,21.7 L 94.6,13.5 L 87.9,8.3 L 96.4,8.0 Z" fill="#E0A400" opacity="0.55" transform="rotate(-20 99.3 12.0)"/><path d="M 9.0,31.6 L 11.9,39.5 L 20.4,39.9 L 13.8,45.1 L 16.1,53.3 L 9.0,48.6 L 1.9,53.3 L 4.2,45.1 L -2.4,39.9 L 6.1,39.5 Z" fill="#E0A400" opacity="0.55" transform="rotate(-20 9.0 43.6)"/><path d="M 61.2,31.6 L 64.1,39.5 L 72.6,39.9 L 65.9,45.1 L 68.2,53.3 L 61.2,48.6 L 54.1,53.3 L 56.4,45.1 L 49.8,39.9 L 58.2,39.5 Z" fill="#E0A400" opacity="0.55" transform="rotate(-20 61.2 43.6)"/><path d="M 113.3,31.6 L 116.3,39.5 L 124.8,39.9 L 118.1,45.1 L 120.4,53.3 L 113.3,48.6 L 106.3,53.3 L 108.6,45.1 L 101.9,39.9 L 110.4,39.5 Z" fill="#E0A400" opacity="0.55" transform="rotate(-20 113.3 43.6)"/><path d="M -5.0,63.2 L -2.1,71.1 L 6.4,71.4 L -0.2,76.7 L 2.1,84.9 L -5.0,80.2 L -12.1,84.9 L -9.8,76.7 L -16.4,71.4 L -7.9,71.1 Z" fill="#E0A400" opacity="0.55" transform="rotate(-20 -5.0 75.2)"/><path d="M 47.2,63.2 L 50.1,71.1 L 58.6,71.4 L 51.9,76.7 L 54.2,84.9 L 47.2,80.2 L 40.1,84.9 L 42.4,76.7 L 35.8,71.4 L 44.2,71.1 Z" fill="#E0A400" opacity="0.55" transform="rotate(-20 47.2 75.2)"/><path d="M 99.3,63.2 L 102.3,71.1 L 110.8,71.4 L 104.1,76.7 L 106.4,84.9 L 99.3,80.2 L 92.3,84.9 L 94.6,76.7 L 87.9,71.4 L 96.4,71.1 Z" fill="#E0A400" opacity="0.55" transform="rotate(-20 99.3 75.2)"/><path d="M 9.0,94.7 L 11.9,102.7 L 20.4,103.0 L 13.8,108.3 L 16.1,116.4 L 9.0,111.7 L 1.9,116.4 L 4.2,108.3 L -2.4,103.0 L 6.1,102.7 Z" fill="#E0A400" opacity="0.55" transform="rotate(-20 9.0 106.7)"/><path d="M 61.2,94.7 L 64.1,102.7 L 72.6,103.0 L 65.9,108.3 L 68.2,116.4 L 61.2,111.7 L 54.1,116.4 L 56.4,108.3 L 49.8,103.0 L 58.2,102.7 Z" fill="#E0A400" opacity="0.55" transform="rotate(-20 61.2 106.7)"/><path d="M 113.3,94.7 L 116.3,102.7 L 124.8,103.0 L 118.1,108.3 L 120.4,116.4 L 113.3,111.7 L 106.3,116.4 L 108.6,108.3 L 101.9,103.0 L 110.4,102.7 Z" fill="#E0A400" opacity="0.55" transform="rotate(-20 113.3 106.7)"/><path d="M -5.0,126.3 L -2.1,134.3 L 6.4,134.6 L -0.2,139.9 L 2.1,148.0 L -5.0,143.3 L -12.1,148.0 L -9.8,139.9 L -16.4,134.6 L -7.9,134.3 Z" fill="#E0A400" opacity="0.55" transform="rotate(-20 -5.0 138.3)"/><path d="M 47.2,126.3 L 50.1,134.3 L 58.6,134.6 L 51.9,139.9 L 54.2,148.0 L 47.2,143.3 L 40.1,148.0 L 42.4,139.9 L 35.8,134.6 L 44.2,134.3 Z" fill="#E0A400" opacity="0.55" transform="rotate(-20 47.2 138.3)"/><path d="M 99.3,126.3 L 102.3,134.3 L 110.8,134.6 L 104.1,139.9 L 106.4,148.0 L 99.3,143.3 L 92.3,148.0 L 94.6,139.9 L 87.9,134.6 L 96.4,134.3 Z" fill="#E0A400" opacity="0.55" transform="rotate(-20 99.3 138.3)"/><path d="M 9.0,157.9 L 11.9,165.8 L 20.4,166.2 L 13.8,171.4 L 16.1,179.6 L 9.0,174.9 L 1.9,179.6 L 4.2,171.4 L -2.4,166.2 L 6.1,165.8 Z" fill="#E0A400" opacity="0.55" transform="rotate(-20 9.0 169.9)"/><path d="M 61.2,157.9 L 64.1,165.8 L 72.6,166.2 L 65.9,171.4 L 68.2,179.6 L 61.2,174.9 L 54.1,179.6 L 56.4,171.4 L 49.8,166.2 L 58.2,165.8 Z" fill="#E0A400" opacity="0.55" transform="rotate(-20 61.2 169.9)"/><path d="M 113.3,157.9 L 116.3,165.8 L 124.8,166.2 L 118.1,171.4 L 120.4,179.6 L 113.3,174.9 L 106.3,179.6 L 108.6,171.4 L 101.9,166.2 L 110.4,165.8 Z" fill="#E0A400" opacity="0.55" transform="rotate(-20 113.3 169.9)"/></g><circle cx="60.0" cy="90.0" r="31.1" fill="none" stroke="#1a1a1a" stroke-width="15"/><circle cx="60.0" cy="90.0" r="31.1" fill="none" stroke="white" stroke-width="9"/><line x1="35.7" y1="65.7" x2="84.3" y2="114.3" stroke="#1a1a1a" stroke-width="15" stroke-linecap="round"/><line x1="35.7" y1="65.7" x2="84.3" y2="114.3" stroke="white" stroke-width="9" stroke-linecap="round"/><text x="15" y="34.74000000000001" font-family="Arial, Helvetica, sans-serif" font-size="25.7" font-weight="900" fill="white" stroke="#1a1a1a" stroke-width="3" stroke-linejoin="round" paint-order="stroke fill">⊘</text><g transform="translate(113,173) rotate(180)"><text x="8" y="27.7" font-family="Arial, Helvetica, sans-serif" font-size="25.7" font-weight="900" fill="white" stroke="#1a1a1a" stroke-width="3" stroke-linejoin="round" paint-order="stroke fill">⊘</text></g></g><text x="410.0" y="466" text-anchor="middle" font-family="Arial, Helvetica, sans-serif" font-size="14" fill="#333">Bloklama Sari</text><g transform="translate(510,264)"><rect x="0" y="0" width="120" height="180" rx="14" ry="14" fill="white" stroke="#cccccc" stroke-width="1"/><rect x="7" y="7" width="106" height="166" rx="10" ry="10" fill="#EC1C2E"/><clipPath id="clip_510_264"><rect x="7" y="7" width="106" height="166" rx="10" ry="10"/></clipPath><g clip-path="url(#clip_510_264)"><path d="M -24.7,7.7 L -12.4,3.3 L 2.2,5.6 L -7.6,16.7 L -19.8,21.2 L -16.1,12.2 Z" fill="#B5121F" opacity="0.55"/><path d="M 29.9,7.7 L 42.1,3.3 L 56.8,5.6 L 47.0,16.7 L 34.8,21.2 L 38.4,12.2 Z" fill="#B5121F" opacity="0.55"/><path d="M 84.4,7.7 L 96.6,3.3 L 111.3,5.6 L 101.5,16.7 L 89.3,21.2 L 93.0,12.2 Z" fill="#B5121F" opacity="0.55"/><path d="M -9.7,40.5 L 2.6,36.0 L 17.2,38.3 L 7.4,49.4 L -4.8,53.9 L -1.1,45.0 Z" fill="#B5121F" opacity="0.55"/><path d="M 44.9,40.5 L 57.1,36.0 L 71.8,38.3 L 62.0,49.4 L 49.8,53.9 L 53.4,45.0 Z" fill="#B5121F" opacity="0.55"/><path d="M 99.4,40.5 L 111.6,36.0 L 126.3,38.3 L 116.5,49.4 L 104.3,53.9 L 108.0,45.0 Z" fill="#B5121F" opacity="0.55"/><path d="M -24.7,73.2 L -12.4,68.7 L 2.2,71.0 L -7.6,82.2 L -19.8,86.6 L -16.1,77.7 Z" fill="#B5121F" opacity="0.55"/><path d="M 29.9,73.2 L 42.1,68.7 L 56.8,71.0 L 47.0,82.2 L 34.8,86.6 L 38.4,77.7 Z" fill="#B5121F" opacity="0.55"/><path d="M 84.4,73.2 L 96.6,68.7 L 111.3,71.0 L 101.5,82.2 L 89.3,86.6 L 93.0,77.7 Z" fill="#B5121F" opacity="0.55"/><path d="M -9.7,105.9 L 2.6,101.5 L 17.2,103.7 L 7.4,114.9 L -4.8,119.3 L -1.1,110.4 Z" fill="#B5121F" opacity="0.55"/><path d="M 44.9,105.9 L 57.1,101.5 L 71.8,103.7 L 62.0,114.9 L 49.8,119.3 L 53.4,110.4 Z" fill="#B5121F" opacity="0.55"/><path d="M 99.4,105.9 L 111.6,101.5 L 126.3,103.7 L 116.5,114.9 L 104.3,119.3 L 108.0,110.4 Z" fill="#B5121F" opacity="0.55"/><path d="M -24.7,138.6 L -12.4,134.2 L 2.2,136.5 L -7.6,147.6 L -19.8,152.1 L -16.1,143.1 Z" fill="#B5121F" opacity="0.55"/><path d="M 29.9,138.6 L 42.1,134.2 L 56.8,136.5 L 47.0,147.6 L 34.8,152.1 L 38.4,143.1 Z" fill="#B5121F" opacity="0.55"/><path d="M 84.4,138.6 L 96.6,134.2 L 111.3,136.5 L 101.5,147.6 L 89.3,152.1 L 93.0,143.1 Z" fill="#B5121F" opacity="0.55"/><path d="M -9.7,171.4 L 2.6,166.9 L 17.2,169.2 L 7.4,180.4 L -4.8,184.8 L -1.1,175.9 Z" fill="#B5121F" opacity="0.55"/><path d="M 44.9,171.4 L 57.1,166.9 L 71.8,169.2 L 62.0,180.4 L 49.8,184.8 L 53.4,175.9 Z" fill="#B5121F" opacity="0.55"/><path d="M 99.4,171.4 L 111.6,166.9 L 126.3,169.2 L 116.5,180.4 L 104.3,184.8 L 108.0,175.9 Z" fill="#B5121F" opacity="0.55"/></g><path d="M 60.0,43.3 L 75.6,61.4 L 69.0,61.4 L 69.0,108.7 L 51.0,108.7 L 51.0,61.4 L 44.4,61.4 Z" fill="white" stroke="#1a1a1a" stroke-width="3" stroke-linejoin="round"/><text x="60.0" y="128.7" font-family="Arial, Helvetica, sans-serif" font-size="14" font-weight="800" fill="white" stroke="#1a1a1a" stroke-width="1.4" stroke-linejoin="round" paint-order="stroke fill" text-anchor="middle" textLength="88" lengthAdjust="spacingAndGlyphs">TEKRAR OYNA</text></g><text x="570.0" y="466" text-anchor="middle" font-family="Arial, Helvetica, sans-serif" font-size="14" fill="#333">Tekrar Kirmizi</text><g transform="translate(670,264)"><rect x="0" y="0" width="120" height="180" rx="14" ry="14" fill="white" stroke="#cccccc" stroke-width="1"/><rect x="7" y="7" width="106" height="166" rx="10" ry="10" fill="#0072BC"/><clipPath id="clip_670_264"><rect x="7" y="7" width="106" height="166" rx="10" ry="10"/></clipPath><g clip-path="url(#clip_670_264)"><path d="M -10,5.0 q 16.8,-10 33.6,0 q 16.8,10 33.6,0 q 16.8,-10 33.6,0 q 16.8,10 33.6,0" fill="none" stroke="#00548B" stroke-width="4" stroke-linecap="round" opacity="0.55" transform="rotate(-20 60.0 5.0)"/><path d="M -10,25.0 q 16.8,-10 33.6,0 q 16.8,10 33.6,0 q 16.8,-10 33.6,0 q 16.8,10 33.6,0" fill="none" stroke="#00548B" stroke-width="4" stroke-linecap="round" opacity="0.55" transform="rotate(-20 60.0 25.0)"/><path d="M -10,45.0 q 16.8,-10 33.6,0 q 16.8,10 33.6,0 q 16.8,-10 33.6,0 q 16.8,10 33.6,0" fill="none" stroke="#00548B" stroke-width="4" stroke-linecap="round" opacity="0.55" transform="rotate(-20 60.0 45.0)"/><path d="M -10,65.0 q 16.8,-10 33.6,0 q 16.8,10 33.6,0 q 16.8,-10 33.6,0 q 16.8,10 33.6,0" fill="none" stroke="#00548B" stroke-width="4" stroke-linecap="round" opacity="0.55" transform="rotate(-20 60.0 65.0)"/><path d="M -10,85.0 q 16.8,-10 33.6,0 q 16.8,10 33.6,0 q 16.8,-10 33.6,0 q 16.8,10 33.6,0" fill="none" stroke="#00548B" stroke-width="4" stroke-linecap="round" opacity="0.55" transform="rotate(-20 60.0 85.0)"/><path d="M -10,105.0 q 16.8,-10 33.6,0 q 16.8,10 33.6,0 q 16.8,-10 33.6,0 q 16.8,10 33.6,0" fill="none" stroke="#00548B" stroke-width="4" stroke-linecap="round" opacity="0.55" transform="rotate(-20 60.0 105.0)"/><path d="M -10,125.0 q 16.8,-10 33.6,0 q 16.8,10 33.6,0 q 16.8,-10 33.6,0 q 16.8,10 33.6,0" fill="none" stroke="#00548B" stroke-width="4" stroke-linecap="round" opacity="0.55" transform="rotate(-20 60.0 125.0)"/><path d="M -10,145.0 q 16.8,-10 33.6,0 q 16.8,10 33.6,0 q 16.8,-10 33.6,0 q 16.8,10 33.6,0" fill="none" stroke="#00548B" stroke-width="4" stroke-linecap="round" opacity="0.55" transform="rotate(-20 60.0 145.0)"/><path d="M -10,165.0 q 16.8,-10 33.6,0 q 16.8,10 33.6,0 q 16.8,-10 33.6,0 q 16.8,10 33.6,0" fill="none" stroke="#00548B" stroke-width="4" stroke-linecap="round" opacity="0.55" transform="rotate(-20 60.0 165.0)"/></g><path d="M 60.0,43.3 L 75.6,61.4 L 69.0,61.4 L 69.0,108.7 L 51.0,108.7 L 51.0,61.4 L 44.4,61.4 Z" fill="white" stroke="#1a1a1a" stroke-width="3" stroke-linejoin="round"/><text x="60.0" y="128.7" font-family="Arial, Helvetica, sans-serif" font-size="14" font-weight="800" fill="white" stroke="#1a1a1a" stroke-width="1.4" stroke-linejoin="round" paint-order="stroke fill" text-anchor="middle" textLength="88" lengthAdjust="spacingAndGlyphs">TEKRAR OYNA</text></g><text x="730.0" y="466" text-anchor="middle" font-family="Arial, Helvetica, sans-serif" font-size="14" fill="#333">Tekrar Mavi</text><g transform="translate(830,264)"><rect x="0" y="0" width="120" height="180" rx="14" ry="14" fill="white" stroke="#cccccc" stroke-width="1"/><rect x="7" y="7" width="106" height="166" rx="10" ry="10" fill="#4C9F3D"/><clipPath id="clip_830_264"><rect x="7" y="7" width="106" height="166" rx="10" ry="10"/></clipPath><g clip-path="url(#clip_830_264)"><path d="M -17.3,3.4 Q 2.7,0.9 7.3,20.6 Q -12.7,23.1 -17.3,3.4 Z" fill="#357029" opacity="0.55"/><path d="M 34.9,3.4 Q 54.9,0.9 59.5,20.6 Q 39.4,23.1 34.9,3.4 Z" fill="#357029" opacity="0.55"/><path d="M 87.1,3.4 Q 107.1,0.9 111.6,20.6 Q 91.6,23.1 87.1,3.4 Z" fill="#357029" opacity="0.55"/><path d="M -3.3,35.0 Q 16.7,32.5 21.3,52.2 Q 1.3,54.6 -3.3,35.0 Z" fill="#357029" opacity="0.55"/><path d="M 48.9,35.0 Q 68.9,32.5 73.5,52.2 Q 53.4,54.6 48.9,35.0 Z" fill="#357029" opacity="0.55"/><path d="M 101.1,35.0 Q 121.1,32.5 125.6,52.2 Q 105.6,54.6 101.1,35.0 Z" fill="#357029" opacity="0.55"/><path d="M -17.3,66.6 Q 2.7,64.1 7.3,83.8 Q -12.7,86.2 -17.3,66.6 Z" fill="#357029" opacity="0.55"/><path d="M 34.9,66.6 Q 54.9,64.1 59.5,83.8 Q 39.4,86.2 34.9,66.6 Z" fill="#357029" opacity="0.55"/><path d="M 87.1,66.6 Q 107.1,64.1 111.6,83.8 Q 91.6,86.2 87.1,66.6 Z" fill="#357029" opacity="0.55"/><path d="M -3.3,98.1 Q 16.7,95.7 21.3,115.3 Q 1.3,117.8 -3.3,98.1 Z" fill="#357029" opacity="0.55"/><path d="M 48.9,98.1 Q 68.9,95.7 73.5,115.3 Q 53.4,117.8 48.9,98.1 Z" fill="#357029" opacity="0.55"/><path d="M 101.1,98.1 Q 121.1,95.7 125.6,115.3 Q 105.6,117.8 101.1,98.1 Z" fill="#357029" opacity="0.55"/><path d="M -17.3,129.7 Q 2.7,127.3 7.3,146.9 Q -12.7,149.4 -17.3,129.7 Z" fill="#357029" opacity="0.55"/><path d="M 34.9,129.7 Q 54.9,127.3 59.5,146.9 Q 39.4,149.4 34.9,129.7 Z" fill="#357029" opacity="0.55"/><path d="M 87.1,129.7 Q 107.1,127.3 111.6,146.9 Q 91.6,149.4 87.1,129.7 Z" fill="#357029" opacity="0.55"/><path d="M -3.3,161.3 Q 16.7,158.8 21.3,178.5 Q 1.3,181.0 -3.3,161.3 Z" fill="#357029" opacity="0.55"/><path d="M 48.9,161.3 Q 68.9,158.8 73.5,178.5 Q 53.4,181.0 48.9,161.3 Z" fill="#357029" opacity="0.55"/><path d="M 101.1,161.3 Q 121.1,158.8 125.6,178.5 Q 105.6,181.0 101.1,161.3 Z" fill="#357029" opacity="0.55"/></g><path d="M 60.0,43.3 L 75.6,61.4 L 69.0,61.4 L 69.0,108.7 L 51.0,108.7 L 51.0,61.4 L 44.4,61.4 Z" fill="white" stroke="#1a1a1a" stroke-width="3" stroke-linejoin="round"/><text x="60.0" y="128.7" font-family="Arial, Helvetica, sans-serif" font-size="14" font-weight="800" fill="white" stroke="#1a1a1a" stroke-width="1.4" stroke-linejoin="round" paint-order="stroke fill" text-anchor="middle" textLength="88" lengthAdjust="spacingAndGlyphs">TEKRAR OYNA</text></g><text x="890.0" y="466" text-anchor="middle" font-family="Arial, Helvetica, sans-serif" font-size="14" fill="#333">Tekrar Yesil</text><g transform="translate(990,264)"><rect x="0" y="0" width="120" height="180" rx="14" ry="14" fill="white" stroke="#cccccc" stroke-width="1"/><rect x="7" y="7" width="106" height="166" rx="10" ry="10" fill="#FFCC00"/><clipPath id="clip_990_264"><rect x="7" y="7" width="106" height="166" rx="10" ry="10"/></clipPath><g clip-path="url(#clip_990_264)"><path d="M -5.0,0.0 L -2.1,8.0 L 6.4,8.3 L -0.2,13.5 L 2.1,21.7 L -5.0,17.0 L -12.1,21.7 L -9.8,13.5 L -16.4,8.3 L -7.9,8.0 Z" fill="#E0A400" opacity="0.55" transform="rotate(-20 -5.0 12.0)"/><path d="M 47.2,0.0 L 50.1,8.0 L 58.6,8.3 L 51.9,13.5 L 54.2,21.7 L 47.2,17.0 L 40.1,21.7 L 42.4,13.5 L 35.8,8.3 L 44.2,8.0 Z" fill="#E0A400" opacity="0.55" transform="rotate(-20 47.2 12.0)"/><path d="M 99.3,0.0 L 102.3,8.0 L 110.8,8.3 L 104.1,13.5 L 106.4,21.7 L 99.3,17.0 L 92.3,21.7 L 94.6,13.5 L 87.9,8.3 L 96.4,8.0 Z" fill="#E0A400" opacity="0.55" transform="rotate(-20 99.3 12.0)"/><path d="M 9.0,31.6 L 11.9,39.5 L 20.4,39.9 L 13.8,45.1 L 16.1,53.3 L 9.0,48.6 L 1.9,53.3 L 4.2,45.1 L -2.4,39.9 L 6.1,39.5 Z" fill="#E0A400" opacity="0.55" transform="rotate(-20 9.0 43.6)"/><path d="M 61.2,31.6 L 64.1,39.5 L 72.6,39.9 L 65.9,45.1 L 68.2,53.3 L 61.2,48.6 L 54.1,53.3 L 56.4,45.1 L 49.8,39.9 L 58.2,39.5 Z" fill="#E0A400" opacity="0.55" transform="rotate(-20 61.2 43.6)"/><path d="M 113.3,31.6 L 116.3,39.5 L 124.8,39.9 L 118.1,45.1 L 120.4,53.3 L 113.3,48.6 L 106.3,53.3 L 108.6,45.1 L 101.9,39.9 L 110.4,39.5 Z" fill="#E0A400" opacity="0.55" transform="rotate(-20 113.3 43.6)"/><path d="M -5.0,63.2 L -2.1,71.1 L 6.4,71.4 L -0.2,76.7 L 2.1,84.9 L -5.0,80.2 L -12.1,84.9 L -9.8,76.7 L -16.4,71.4 L -7.9,71.1 Z" fill="#E0A400" opacity="0.55" transform="rotate(-20 -5.0 75.2)"/><path d="M 47.2,63.2 L 50.1,71.1 L 58.6,71.4 L 51.9,76.7 L 54.2,84.9 L 47.2,80.2 L 40.1,84.9 L 42.4,76.7 L 35.8,71.4 L 44.2,71.1 Z" fill="#E0A400" opacity="0.55" transform="rotate(-20 47.2 75.2)"/><path d="M 99.3,63.2 L 102.3,71.1 L 110.8,71.4 L 104.1,76.7 L 106.4,84.9 L 99.3,80.2 L 92.3,84.9 L 94.6,76.7 L 87.9,71.4 L 96.4,71.1 Z" fill="#E0A400" opacity="0.55" transform="rotate(-20 99.3 75.2)"/><path d="M 9.0,94.7 L 11.9,102.7 L 20.4,103.0 L 13.8,108.3 L 16.1,116.4 L 9.0,111.7 L 1.9,116.4 L 4.2,108.3 L -2.4,103.0 L 6.1,102.7 Z" fill="#E0A400" opacity="0.55" transform="rotate(-20 9.0 106.7)"/><path d="M 61.2,94.7 L 64.1,102.7 L 72.6,103.0 L 65.9,108.3 L 68.2,116.4 L 61.2,111.7 L 54.1,116.4 L 56.4,108.3 L 49.8,103.0 L 58.2,102.7 Z" fill="#E0A400" opacity="0.55" transform="rotate(-20 61.2 106.7)"/><path d="M 113.3,94.7 L 116.3,102.7 L 124.8,103.0 L 118.1,108.3 L 120.4,116.4 L 113.3,111.7 L 106.3,116.4 L 108.6,108.3 L 101.9,103.0 L 110.4,102.7 Z" fill="#E0A400" opacity="0.55" transform="rotate(-20 113.3 106.7)"/><path d="M -5.0,126.3 L -2.1,134.3 L 6.4,134.6 L -0.2,139.9 L 2.1,148.0 L -5.0,143.3 L -12.1,148.0 L -9.8,139.9 L -16.4,134.6 L -7.9,134.3 Z" fill="#E0A400" opacity="0.55" transform="rotate(-20 -5.0 138.3)"/><path d="M 47.2,126.3 L 50.1,134.3 L 58.6,134.6 L 51.9,139.9 L 54.2,148.0 L 47.2,143.3 L 40.1,148.0 L 42.4,139.9 L 35.8,134.6 L 44.2,134.3 Z" fill="#E0A400" opacity="0.55" transform="rotate(-20 47.2 138.3)"/><path d="M 99.3,126.3 L 102.3,134.3 L 110.8,134.6 L 104.1,139.9 L 106.4,148.0 L 99.3,143.3 L 92.3,148.0 L 94.6,139.9 L 87.9,134.6 L 96.4,134.3 Z" fill="#E0A400" opacity="0.55" transform="rotate(-20 99.3 138.3)"/><path d="M 9.0,157.9 L 11.9,165.8 L 20.4,166.2 L 13.8,171.4 L 16.1,179.6 L 9.0,174.9 L 1.9,179.6 L 4.2,171.4 L -2.4,166.2 L 6.1,165.8 Z" fill="#E0A400" opacity="0.55" transform="rotate(-20 9.0 169.9)"/><path d="M 61.2,157.9 L 64.1,165.8 L 72.6,166.2 L 65.9,171.4 L 68.2,179.6 L 61.2,174.9 L 54.1,179.6 L 56.4,171.4 L 49.8,166.2 L 58.2,165.8 Z" fill="#E0A400" opacity="0.55" transform="rotate(-20 61.2 169.9)"/><path d="M 113.3,157.9 L 116.3,165.8 L 124.8,166.2 L 118.1,171.4 L 120.4,179.6 L 113.3,174.9 L 106.3,179.6 L 108.6,171.4 L 101.9,166.2 L 110.4,165.8 Z" fill="#E0A400" opacity="0.55" transform="rotate(-20 113.3 169.9)"/></g><path d="M 60.0,43.3 L 75.6,61.4 L 69.0,61.4 L 69.0,108.7 L 51.0,108.7 L 51.0,61.4 L 44.4,61.4 Z" fill="white" stroke="#1a1a1a" stroke-width="3" stroke-linejoin="round"/><text x="60.0" y="128.7" font-family="Arial, Helvetica, sans-serif" font-size="14" font-weight="800" fill="white" stroke="#1a1a1a" stroke-width="1.4" stroke-linejoin="round" paint-order="stroke fill" text-anchor="middle" textLength="88" lengthAdjust="spacingAndGlyphs">TEKRAR OYNA</text></g><text x="1050.0" y="466" text-anchor="middle" font-family="Arial, Helvetica, sans-serif" font-size="14" fill="#333">Tekrar Sari</text></svg>