<svg xmlns="http://www.w3.org/2000/svg" width="160" height="220" viewBox="0 0 160 220"><rect width="160" height="220" fill="white"/><g transform="translate(20,20)"><rect x="0" y="0" width="120" height="180" rx="14" ry="14" fill="white" stroke="#cccccc" stroke-width="1"/><clipPath id="bodyclip_20_20"><rect x="7" y="7" width="106" height="166" rx="10" ry="10"/></clipPath><rect x="7" y="7" width="106" height="166" rx="10" ry="10" fill="#111111"/><ellipse cx="60.0" cy="90.0" rx="40.8" ry="43.2" fill="none" stroke="white" stroke-width="4"/><path d="M 60.0,90.0 L 60.0,57.4 A 32.6,32.6 0 0 1 92.6,90.0 Z" fill="#EC1C2E" stroke="white" stroke-width="2"/><path d="M 60.0,90.0 L 92.6,90.0 A 32.6,32.6 0 0 1 60.0,122.6 Z" fill="#0072BC" stroke="white" stroke-width="2"/><path d="M 60.0,90.0 L 60.0,122.6 A 32.6,32.6 0 0 1 27.4,90.0 Z" fill="#4C9F3D" stroke="white" stroke-width="2"/><path d="M 60.0,90.0 L 27.4,90.0 A 32.6,32.6 0 0 1 60.0,57.4 Z" fill="#FFCC00" stroke="white" stroke-width="2"/><circle cx="60.0" cy="90.0" r="10.4" fill="white"/></g></svg>